<?xml version="1.0" encoding="us-ascii" standalone="no"?><svg xmlns="http://www.w3.org/2000/svg" xmlns:xlink="http://www.w3.org/1999/xlink" contentStyleType="text/css" height="799px" preserveAspectRatio="none" style="width:4671px;height:799px;background:#FFFFFF;" version="1.1" viewBox="0 0 4671 799" width="4671px" zoomAndPan="magnify"><defs/><g><!--cluster ru--><g id="cluster_ru"><path d="M125.5,6 L143.5,6 A3.75,3.75 0 0 1 146,8.5 L153,28.2969 L4210.5,28.2969 A2.5,2.5 0 0 1 4213,30.7969 L4213,789.5 A2.5,2.5 0 0 1 4210.5,792 L125.5,792 A2.5,2.5 0 0 1 123,789.5 L123,8.5 A2.5,2.5 0 0 1 125.5,6 " fill="none" style="stroke:#000000;stroke-width:1.5;"/><line style="stroke:#000000;stroke-width:1.5;" x1="123" x2="153" y1="28.2969" y2="28.2969"/><text fill="#000000" font-family="sans-serif" font-size="14" font-weight="bold" lengthAdjust="spacing" textLength="17" x="127" y="20.9951">ru</text></g><!--cluster itmo--><g id="cluster_itmo"><path d="M149.5,49 L188.5,49 A3.75,3.75 0 0 1 191,51.5 L198,71.2969 L4186.5,71.2969 A2.5,2.5 0 0 1 4189,73.7969 L4189,765.5 A2.5,2.5 0 0 1 4186.5,768 L149.5,768 A2.5,2.5 0 0 1 147,765.5 L147,51.5 A2.5,2.5 0 0 1 149.5,49 " fill="none" style="stroke:#000000;stroke-width:1.5;"/><line style="stroke:#000000;stroke-width:1.5;" x1="147" x2="198" y1="71.2969" y2="71.2969"/><text fill="#000000" font-family="sans-serif" font-size="14" font-weight="bold" lengthAdjust="spacing" textLength="38" x="151" y="63.9951">itmo</text></g><!--cluster app--><g id="cluster_app"><path d="M173.5,92 L204.5,92 A3.75,3.75 0 0 1 207,94.5 L214,114.2969 L4162.5,114.2969 A2.5,2.5 0 0 1 4165,116.7969 L4165,741.5 A2.5,2.5 0 0 1 4162.5,744 L173.5,744 A2.5,2.5 0 0 1 171,741.5 L171,94.5 A2.5,2.5 0 0 1 173.5,92 " fill="none" style="stroke:#000000;stroke-width:1.5;"/><line style="stroke:#000000;stroke-width:1.5;" x1="171" x2="214" y1="114.2969" y2="114.2969"/><text fill="#000000" font-family="sans-serif" font-size="14" font-weight="bold" lengthAdjust="spacing" textLength="30" x="175" y="106.9951">app</text></g><!--cluster pokemons--><g id="cluster_pokemons"><path d="M284.5,324 L367.5,324 A3.75,3.75 0 0 1 370,326.5 L377,346.2969 L1095.5,346.2969 A2.5,2.5 0 0 1 1098,348.7969 L1098,701 A2.5,2.5 0 0 1 1095.5,703.5 L284.5,703.5 A2.5,2.5 0 0 1 282,701 L282,326.5 A2.5,2.5 0 0 1 284.5,324 " fill="none" style="stroke:#000000;stroke-width:1.5;"/><line style="stroke:#000000;stroke-width:1.5;" x1="282" x2="377" y1="346.2969" y2="346.2969"/><text fill="#000000" font-family="sans-serif" font-size="14" font-weight="bold" lengthAdjust="spacing" textLength="82" x="286" y="338.9951">pokemons</text></g><!--cluster moves--><g id="cluster_moves"><path d="M1124.5,572 L1177.5,572 A3.75,3.75 0 0 1 1180,574.5 L1187,594.2969 L4138.5,594.2969 A2.5,2.5 0 0 1 4141,596.7969 L4141,717.5 A2.5,2.5 0 0 1 4138.5,720 L1124.5,720 A2.5,2.5 0 0 1 1122,717.5 L1122,574.5 A2.5,2.5 0 0 1 1124.5,572 " fill="none" style="stroke:#000000;stroke-width:1.5;"/><line style="stroke:#000000;stroke-width:1.5;" x1="1122" x2="1187" y1="594.2969" y2="594.2969"/><text fill="#000000" font-family="sans-serif" font-size="14" font-weight="bold" lengthAdjust="spacing" textLength="52" x="1126" y="586.9951">moves</text></g><!--class App--><g id="elem_App"><rect codeLine="1" fill="#F1F1F1" height="64.2969" id="App" rx="2.5" ry="2.5" style="stroke:#181818;stroke-width:0.5;" width="238" x="239" y="127"/><ellipse cx="338.75" cy="143" fill="#ADD1B2" rx="11" ry="11" style="stroke:#181818;stroke-width:1.0;"/><path d="M341.0938,138.6719 C340.1563,138.2344 339.5625,138.0938 338.6875,138.0938 C336.0625,138.0938 334.0625,140.1719 334.0625,142.8906 L334.0625,144.0156 C334.0625,146.5938 336.1719,148.4844 339.0625,148.4844 C340.2813,148.4844 341.4375,148.1875 342.1875,147.6406 C342.7656,147.2344 343.0938,146.7813 343.0938,146.3906 C343.0938,145.9375 342.7031,145.5469 342.2344,145.5469 C342.0156,145.5469 341.8125,145.625 341.625,145.8125 C341.1719,146.2969 341.1719,146.2969 340.9844,146.3906 C340.5625,146.6563 339.875,146.7813 339.1094,146.7813 C337.0625,146.7813 335.7656,145.6875 335.7656,143.9844 L335.7656,142.8906 C335.7656,141.1094 337.0156,139.7969 338.75,139.7969 C339.3281,139.7969 339.9375,139.9531 340.4063,140.2031 C340.8906,140.4844 341.0625,140.7031 341.1563,141.1094 C341.2188,141.5156 341.25,141.6406 341.3906,141.7656 C341.5313,141.9063 341.7656,142.0156 341.9844,142.0156 C342.25,142.0156 342.5156,141.875 342.6875,141.6563 C342.7969,141.5 342.8281,141.3125 342.8281,140.8906 L342.8281,139.4688 C342.8281,139.0313 342.8125,138.9063 342.7188,138.75 C342.5625,138.4844 342.2813,138.3438 341.9844,138.3438 C341.6875,138.3438 341.4844,138.4375 341.2656,138.75 L341.0938,138.6719 Z " fill="#000000"/><text fill="#000000" font-family="sans-serif" font-size="14" lengthAdjust="spacing" textLength="30" x="359.25" y="147.8467">App</text><line style="stroke:#181818;stroke-width:0.5;" x1="240" x2="476" y1="159" y2="159"/><line style="stroke:#181818;stroke-width:0.5;" x1="240" x2="476" y1="167" y2="167"/><ellipse cx="250" cy="180.6484" fill="#84BE84" rx="3" ry="3" style="stroke:#038048;stroke-width:1.0;"/><text fill="#000000" font-family="sans-serif" font-size="14" lengthAdjust="spacing" textLength="212" x="259" y="183.9951">static void main(String[] args)</text></g><!--class Mesprit--><g id="elem_Mesprit"><rect codeLine="21" fill="#F1F1F1" height="64.2969" id="Mesprit" rx="2.5" ry="2.5" style="stroke:#181818;stroke-width:0.5;" width="245" x="559.5" y="359"/><ellipse cx="650.25" cy="375" fill="#ADD1B2" rx="11" ry="11" style="stroke:#181818;stroke-width:1.0;"/><path d="M652.5938,370.6719 C651.6563,370.2344 651.0625,370.0938 650.1875,370.0938 C647.5625,370.0938 645.5625,372.1719 645.5625,374.8906 L645.5625,376.0156 C645.5625,378.5938 647.6719,380.4844 650.5625,380.4844 C651.7813,380.4844 652.9375,380.1875 653.6875,379.6406 C654.2656,379.2344 654.5938,378.7813 654.5938,378.3906 C654.5938,377.9375 654.2031,377.5469 653.7344,377.5469 C653.5156,377.5469 653.3125,377.625 653.125,377.8125 C652.6719,378.2969 652.6719,378.2969 652.4844,378.3906 C652.0625,378.6563 651.375,378.7813 650.6094,378.7813 C648.5625,378.7813 647.2656,377.6875 647.2656,375.9844 L647.2656,374.8906 C647.2656,373.1094 648.5156,371.7969 650.25,371.7969 C650.8281,371.7969 651.4375,371.9531 651.9063,372.2031 C652.3906,372.4844 652.5625,372.7031 652.6563,373.1094 C652.7188,373.5156 652.75,373.6406 652.8906,373.7656 C653.0313,373.9063 653.2656,374.0156 653.4844,374.0156 C653.75,374.0156 654.0156,373.875 654.1875,373.6563 C654.2969,373.5 654.3281,373.3125 654.3281,372.8906 L654.3281,371.4688 C654.3281,371.0313 654.3125,370.9063 654.2188,370.75 C654.0625,370.4844 653.7813,370.3438 653.4844,370.3438 C653.1875,370.3438 652.9844,370.4375 652.7656,370.75 L652.5938,370.6719 Z " fill="#000000"/><text fill="#000000" font-family="sans-serif" font-size="14" lengthAdjust="spacing" textLength="55" x="670.75" y="379.8467">Mesprit</text><line style="stroke:#181818;stroke-width:0.5;" x1="560.5" x2="803.5" y1="391" y2="391"/><line style="stroke:#181818;stroke-width:0.5;" x1="560.5" x2="803.5" y1="399" y2="399"/><ellipse cx="570.5" cy="412.6484" fill="#84BE84" rx="3" ry="3" style="stroke:#038048;stroke-width:1.0;"/><text fill="#000000" font-family="sans-serif" font-size="14" lengthAdjust="spacing" textLength="219" x="579.5" y="415.9951">Mesprit(String name, int level)</text></g><!--class Kirlia--><g id="elem_Kirlia"><rect codeLine="16" fill="#F1F1F1" height="64.2969" id="Kirlia" rx="2.5" ry="2.5" style="stroke:#181818;stroke-width:0.5;" width="226" x="306" y="483"/><ellipse cx="396.75" cy="499" fill="#ADD1B2" rx="11" ry="11" style="stroke:#181818;stroke-width:1.0;"/><path d="M399.0938,494.6719 C398.1563,494.2344 397.5625,494.0938 396.6875,494.0938 C394.0625,494.0938 392.0625,496.1719 392.0625,498.8906 L392.0625,500.0156 C392.0625,502.5938 394.1719,504.4844 397.0625,504.4844 C398.2813,504.4844 399.4375,504.1875 400.1875,503.6406 C400.7656,503.2344 401.0938,502.7813 401.0938,502.3906 C401.0938,501.9375 400.7031,501.5469 400.2344,501.5469 C400.0156,501.5469 399.8125,501.625 399.625,501.8125 C399.1719,502.2969 399.1719,502.2969 398.9844,502.3906 C398.5625,502.6563 397.875,502.7813 397.1094,502.7813 C395.0625,502.7813 393.7656,501.6875 393.7656,499.9844 L393.7656,498.8906 C393.7656,497.1094 395.0156,495.7969 396.75,495.7969 C397.3281,495.7969 397.9375,495.9531 398.4063,496.2031 C398.8906,496.4844 399.0625,496.7031 399.1563,497.1094 C399.2188,497.5156 399.25,497.6406 399.3906,497.7656 C399.5313,497.9063 399.7656,498.0156 399.9844,498.0156 C400.25,498.0156 400.5156,497.875 400.6875,497.6563 C400.7969,497.5 400.8281,497.3125 400.8281,496.8906 L400.8281,495.4688 C400.8281,495.0313 400.8125,494.9063 400.7188,494.75 C400.5625,494.4844 400.2813,494.3438 399.9844,494.3438 C399.6875,494.3438 399.4844,494.4375 399.2656,494.75 L399.0938,494.6719 Z " fill="#000000"/><text fill="#000000" font-family="sans-serif" font-size="14" lengthAdjust="spacing" textLength="36" x="417.25" y="503.8467">Kirlia</text><line style="stroke:#181818;stroke-width:0.5;" x1="307" x2="531" y1="515" y2="515"/><line style="stroke:#181818;stroke-width:0.5;" x1="307" x2="531" y1="523" y2="523"/><ellipse cx="317" cy="536.6484" fill="#84BE84" rx="3" ry="3" style="stroke:#038048;stroke-width:1.0;"/><text fill="#000000" font-family="sans-serif" font-size="14" lengthAdjust="spacing" textLength="200" x="326" y="539.9951">Kirlia(String name, int level)</text></g><!--class Gardevoir--><g id="elem_Gardevoir"><rect codeLine="11" fill="#F1F1F1" height="64.2969" id="Gardevoir" rx="2.5" ry="2.5" style="stroke:#181818;stroke-width:0.5;" width="260" x="298" y="623.5"/><ellipse cx="388.75" cy="639.5" fill="#ADD1B2" rx="11" ry="11" style="stroke:#181818;stroke-width:1.0;"/><path d="M391.0938,635.1719 C390.1563,634.7344 389.5625,634.5938 388.6875,634.5938 C386.0625,634.5938 384.0625,636.6719 384.0625,639.3906 L384.0625,640.5156 C384.0625,643.0938 386.1719,644.9844 389.0625,644.9844 C390.2813,644.9844 391.4375,644.6875 392.1875,644.1406 C392.7656,643.7344 393.0938,643.2813 393.0938,642.8906 C393.0938,642.4375 392.7031,642.0469 392.2344,642.0469 C392.0156,642.0469 391.8125,642.125 391.625,642.3125 C391.1719,642.7969 391.1719,642.7969 390.9844,642.8906 C390.5625,643.1563 389.875,643.2813 389.1094,643.2813 C387.0625,643.2813 385.7656,642.1875 385.7656,640.4844 L385.7656,639.3906 C385.7656,637.6094 387.0156,636.2969 388.75,636.2969 C389.3281,636.2969 389.9375,636.4531 390.4063,636.7031 C390.8906,636.9844 391.0625,637.2031 391.1563,637.6094 C391.2188,638.0156 391.25,638.1406 391.3906,638.2656 C391.5313,638.4063 391.7656,638.5156 391.9844,638.5156 C392.25,638.5156 392.5156,638.375 392.6875,638.1563 C392.7969,638 392.8281,637.8125 392.8281,637.3906 L392.8281,635.9688 C392.8281,635.5313 392.8125,635.4063 392.7188,635.25 C392.5625,634.9844 392.2813,634.8438 391.9844,634.8438 C391.6875,634.8438 391.4844,634.9375 391.2656,635.25 L391.0938,635.1719 Z " fill="#000000"/><text fill="#000000" font-family="sans-serif" font-size="14" lengthAdjust="spacing" textLength="70" x="409.25" y="644.3467">Gardevoir</text><line style="stroke:#181818;stroke-width:0.5;" x1="299" x2="557" y1="655.5" y2="655.5"/><line style="stroke:#181818;stroke-width:0.5;" x1="299" x2="557" y1="663.5" y2="663.5"/><ellipse cx="309" cy="677.1484" fill="#84BE84" rx="3" ry="3" style="stroke:#038048;stroke-width:1.0;"/><text fill="#000000" font-family="sans-serif" font-size="14" lengthAdjust="spacing" textLength="234" x="318" y="680.4951">Gardevoir(String name, int level)</text></g><!--class Pelipper--><g id="elem_Pelipper"><rect codeLine="29" fill="#F1F1F1" height="64.2969" id="Pelipper" rx="2.5" ry="2.5" style="stroke:#181818;stroke-width:0.5;" width="251" x="830.5" y="483"/><ellipse cx="921.25" cy="499" fill="#ADD1B2" rx="11" ry="11" style="stroke:#181818;stroke-width:1.0;"/><path d="M923.5938,494.6719 C922.6563,494.2344 922.0625,494.0938 921.1875,494.0938 C918.5625,494.0938 916.5625,496.1719 916.5625,498.8906 L916.5625,500.0156 C916.5625,502.5938 918.6719,504.4844 921.5625,504.4844 C922.7813,504.4844 923.9375,504.1875 924.6875,503.6406 C925.2656,503.2344 925.5938,502.7813 925.5938,502.3906 C925.5938,501.9375 925.2031,501.5469 924.7344,501.5469 C924.5156,501.5469 924.3125,501.625 924.125,501.8125 C923.6719,502.2969 923.6719,502.2969 923.4844,502.3906 C923.0625,502.6563 922.375,502.7813 921.6094,502.7813 C919.5625,502.7813 918.2656,501.6875 918.2656,499.9844 L918.2656,498.8906 C918.2656,497.1094 919.5156,495.7969 921.25,495.7969 C921.8281,495.7969 922.4375,495.9531 922.9063,496.2031 C923.3906,496.4844 923.5625,496.7031 923.6563,497.1094 C923.7188,497.5156 923.75,497.6406 923.8906,497.7656 C924.0313,497.9063 924.2656,498.0156 924.4844,498.0156 C924.75,498.0156 925.0156,497.875 925.1875,497.6563 C925.2969,497.5 925.3281,497.3125 925.3281,496.8906 L925.3281,495.4688 C925.3281,495.0313 925.3125,494.9063 925.2188,494.75 C925.0625,494.4844 924.7813,494.3438 924.4844,494.3438 C924.1875,494.3438 923.9844,494.4375 923.7656,494.75 L923.5938,494.6719 Z " fill="#000000"/><text fill="#000000" font-family="sans-serif" font-size="14" lengthAdjust="spacing" textLength="61" x="941.75" y="503.8467">Pelipper</text><line style="stroke:#181818;stroke-width:0.5;" x1="831.5" x2="1080.5" y1="515" y2="515"/><line style="stroke:#181818;stroke-width:0.5;" x1="831.5" x2="1080.5" y1="523" y2="523"/><ellipse cx="841.5" cy="536.6484" fill="#84BE84" rx="3" ry="3" style="stroke:#038048;stroke-width:1.0;"/><text fill="#000000" font-family="sans-serif" font-size="14" lengthAdjust="spacing" textLength="225" x="850.5" y="539.9951">Pelipper(String name, int level)</text></g><!--class Ralts--><g id="elem_Ralts"><rect codeLine="34" fill="#F1F1F1" height="64.2969" id="Ralts" rx="2.5" ry="2.5" style="stroke:#181818;stroke-width:0.5;" width="226" x="298" y="359"/><ellipse cx="388.75" cy="375" fill="#ADD1B2" rx="11" ry="11" style="stroke:#181818;stroke-width:1.0;"/><path d="M391.0938,370.6719 C390.1563,370.2344 389.5625,370.0938 388.6875,370.0938 C386.0625,370.0938 384.0625,372.1719 384.0625,374.8906 L384.0625,376.0156 C384.0625,378.5938 386.1719,380.4844 389.0625,380.4844 C390.2813,380.4844 391.4375,380.1875 392.1875,379.6406 C392.7656,379.2344 393.0938,378.7813 393.0938,378.3906 C393.0938,377.9375 392.7031,377.5469 392.2344,377.5469 C392.0156,377.5469 391.8125,377.625 391.625,377.8125 C391.1719,378.2969 391.1719,378.2969 390.9844,378.3906 C390.5625,378.6563 389.875,378.7813 389.1094,378.7813 C387.0625,378.7813 385.7656,377.6875 385.7656,375.9844 L385.7656,374.8906 C385.7656,373.1094 387.0156,371.7969 388.75,371.7969 C389.3281,371.7969 389.9375,371.9531 390.4063,372.2031 C390.8906,372.4844 391.0625,372.7031 391.1563,373.1094 C391.2188,373.5156 391.25,373.6406 391.3906,373.7656 C391.5313,373.9063 391.7656,374.0156 391.9844,374.0156 C392.25,374.0156 392.5156,373.875 392.6875,373.6563 C392.7969,373.5 392.8281,373.3125 392.8281,372.8906 L392.8281,371.4688 C392.8281,371.0313 392.8125,370.9063 392.7188,370.75 C392.5625,370.4844 392.2813,370.3438 391.9844,370.3438 C391.6875,370.3438 391.4844,370.4375 391.2656,370.75 L391.0938,370.6719 Z " fill="#000000"/><text fill="#000000" font-family="sans-serif" font-size="14" lengthAdjust="spacing" textLength="36" x="409.25" y="379.8467">Ralts</text><line style="stroke:#181818;stroke-width:0.5;" x1="299" x2="523" y1="391" y2="391"/><line style="stroke:#181818;stroke-width:0.5;" x1="299" x2="523" y1="399" y2="399"/><ellipse cx="309" cy="412.6484" fill="#84BE84" rx="3" ry="3" style="stroke:#038048;stroke-width:1.0;"/><text fill="#000000" font-family="sans-serif" font-size="14" lengthAdjust="spacing" textLength="200" x="318" y="415.9951">Ralts(String name, int level)</text></g><!--class Wingull--><g id="elem_Wingull"><rect codeLine="40" fill="#F1F1F1" height="64.2969" id="Wingull" rx="2.5" ry="2.5" style="stroke:#181818;stroke-width:0.5;" width="242" x="840" y="359"/><ellipse cx="930.75" cy="375" fill="#ADD1B2" rx="11" ry="11" style="stroke:#181818;stroke-width:1.0;"/><path d="M933.0938,370.6719 C932.1563,370.2344 931.5625,370.0938 930.6875,370.0938 C928.0625,370.0938 926.0625,372.1719 926.0625,374.8906 L926.0625,376.0156 C926.0625,378.5938 928.1719,380.4844 931.0625,380.4844 C932.2813,380.4844 933.4375,380.1875 934.1875,379.6406 C934.7656,379.2344 935.0938,378.7813 935.0938,378.3906 C935.0938,377.9375 934.7031,377.5469 934.2344,377.5469 C934.0156,377.5469 933.8125,377.625 933.625,377.8125 C933.1719,378.2969 933.1719,378.2969 932.9844,378.3906 C932.5625,378.6563 931.875,378.7813 931.1094,378.7813 C929.0625,378.7813 927.7656,377.6875 927.7656,375.9844 L927.7656,374.8906 C927.7656,373.1094 929.0156,371.7969 930.75,371.7969 C931.3281,371.7969 931.9375,371.9531 932.4063,372.2031 C932.8906,372.4844 933.0625,372.7031 933.1563,373.1094 C933.2188,373.5156 933.25,373.6406 933.3906,373.7656 C933.5313,373.9063 933.7656,374.0156 933.9844,374.0156 C934.25,374.0156 934.5156,373.875 934.6875,373.6563 C934.7969,373.5 934.8281,373.3125 934.8281,372.8906 L934.8281,371.4688 C934.8281,371.0313 934.8125,370.9063 934.7188,370.75 C934.5625,370.4844 934.2813,370.3438 933.9844,370.3438 C933.6875,370.3438 933.4844,370.4375 933.2656,370.75 L933.0938,370.6719 Z " fill="#000000"/><text fill="#000000" font-family="sans-serif" font-size="14" lengthAdjust="spacing" textLength="52" x="951.25" y="379.8467">Wingull</text><line style="stroke:#181818;stroke-width:0.5;" x1="841" x2="1081" y1="391" y2="391"/><line style="stroke:#181818;stroke-width:0.5;" x1="841" x2="1081" y1="399" y2="399"/><ellipse cx="851" cy="412.6484" fill="#84BE84" rx="3" ry="3" style="stroke:#038048;stroke-width:1.0;"/><text fill="#000000" font-family="sans-serif" font-size="14" lengthAdjust="spacing" textLength="216" x="860" y="415.9951">Wingull(String name, int level)</text></g><!--class ShadowBall--><g id="elem_ShadowBall"><rect codeLine="101" fill="#F1F1F1" height="96.8906" id="ShadowBall" rx="2.5" ry="2.5" style="stroke:#181818;stroke-width:0.5;" width="275" x="3849.5" y="607"/><ellipse cx="3942.25" cy="623" fill="#ADD1B2" rx="11" ry="11" style="stroke:#181818;stroke-width:1.0;"/><path d="M3944.5938,618.6719 C3943.6563,618.2344 3943.0625,618.0938 3942.1875,618.0938 C3939.5625,618.0938 3937.5625,620.1719 3937.5625,622.8906 L3937.5625,624.0156 C3937.5625,626.5938 3939.6719,628.4844 3942.5625,628.4844 C3943.7813,628.4844 3944.9375,628.1875 3945.6875,627.6406 C3946.2656,627.2344 3946.5938,626.7813 3946.5938,626.3906 C3946.5938,625.9375 3946.2031,625.5469 3945.7344,625.5469 C3945.5156,625.5469 3945.3125,625.625 3945.125,625.8125 C3944.6719,626.2969 3944.6719,626.2969 3944.4844,626.3906 C3944.0625,626.6563 3943.375,626.7813 3942.6094,626.7813 C3940.5625,626.7813 3939.2656,625.6875 3939.2656,623.9844 L3939.2656,622.8906 C3939.2656,621.1094 3940.5156,619.7969 3942.25,619.7969 C3942.8281,619.7969 3943.4375,619.9531 3943.9063,620.2031 C3944.3906,620.4844 3944.5625,620.7031 3944.6563,621.1094 C3944.7188,621.5156 3944.75,621.6406 3944.8906,621.7656 C3945.0313,621.9063 3945.2656,622.0156 3945.4844,622.0156 C3945.75,622.0156 3946.0156,621.875 3946.1875,621.6563 C3946.2969,621.5 3946.3281,621.3125 3946.3281,620.8906 L3946.3281,619.4688 C3946.3281,619.0313 3946.3125,618.9063 3946.2188,618.75 C3946.0625,618.4844 3945.7813,618.3438 3945.4844,618.3438 C3945.1875,618.3438 3944.9844,618.4375 3944.7656,618.75 L3944.5938,618.6719 Z " fill="#000000"/><text fill="#000000" font-family="sans-serif" font-size="14" lengthAdjust="spacing" textLength="81" x="3962.75" y="627.8467">ShadowBall</text><line style="stroke:#181818;stroke-width:0.5;" x1="3850.5" x2="4123.5" y1="639" y2="639"/><line style="stroke:#181818;stroke-width:0.5;" x1="3850.5" x2="4123.5" y1="647" y2="647"/><ellipse cx="3860.5" cy="660.6484" fill="#84BE84" rx="3" ry="3" style="stroke:#038048;stroke-width:1.0;"/><text fill="#000000" font-family="sans-serif" font-size="14" lengthAdjust="spacing" textLength="91" x="3869.5" y="663.9951">ShadowBall()</text><polygon fill="#FFFF44" points="3860.5,671.9453,3864.5,675.9453,3860.5,679.9453,3856.5,675.9453" style="stroke:#B38D22;stroke-width:1.0;"/><text fill="#000000" font-family="sans-serif" font-size="14" lengthAdjust="spacing" textLength="249" x="3869.5" y="680.292">void applyOppEffects(Pokemon p)</text><polygon fill="#FFFF44" points="3860.5,688.2422,3864.5,692.2422,3860.5,696.2422,3856.5,692.2422" style="stroke:#B38D22;stroke-width:1.0;"/><text fill="#000000" font-family="sans-serif" font-size="14" lengthAdjust="spacing" textLength="120" x="3869.5" y="696.5889">String describe()</text></g><!--class Charm--><g id="elem_Charm"><rect codeLine="47" fill="#F1F1F1" height="96.8906" id="Charm" rx="2.5" ry="2.5" style="stroke:#181818;stroke-width:0.5;" width="275" x="1138.5" y="607"/><ellipse cx="1248.25" cy="623" fill="#ADD1B2" rx="11" ry="11" style="stroke:#181818;stroke-width:1.0;"/><path d="M1250.5938,618.6719 C1249.6563,618.2344 1249.0625,618.0938 1248.1875,618.0938 C1245.5625,618.0938 1243.5625,620.1719 1243.5625,622.8906 L1243.5625,624.0156 C1243.5625,626.5938 1245.6719,628.4844 1248.5625,628.4844 C1249.7813,628.4844 1250.9375,628.1875 1251.6875,627.6406 C1252.2656,627.2344 1252.5938,626.7813 1252.5938,626.3906 C1252.5938,625.9375 1252.2031,625.5469 1251.7344,625.5469 C1251.5156,625.5469 1251.3125,625.625 1251.125,625.8125 C1250.6719,626.2969 1250.6719,626.2969 1250.4844,626.3906 C1250.0625,626.6563 1249.375,626.7813 1248.6094,626.7813 C1246.5625,626.7813 1245.2656,625.6875 1245.2656,623.9844 L1245.2656,622.8906 C1245.2656,621.1094 1246.5156,619.7969 1248.25,619.7969 C1248.8281,619.7969 1249.4375,619.9531 1249.9063,620.2031 C1250.3906,620.4844 1250.5625,620.7031 1250.6563,621.1094 C1250.7188,621.5156 1250.75,621.6406 1250.8906,621.7656 C1251.0313,621.9063 1251.2656,622.0156 1251.4844,622.0156 C1251.75,622.0156 1252.0156,621.875 1252.1875,621.6563 C1252.2969,621.5 1252.3281,621.3125 1252.3281,620.8906 L1252.3281,619.4688 C1252.3281,619.0313 1252.3125,618.9063 1252.2188,618.75 C1252.0625,618.4844 1251.7813,618.3438 1251.4844,618.3438 C1251.1875,618.3438 1250.9844,618.4375 1250.7656,618.75 L1250.5938,618.6719 Z " fill="#000000"/><text fill="#000000" font-family="sans-serif" font-size="14" lengthAdjust="spacing" textLength="47" x="1268.75" y="627.8467">Charm</text><line style="stroke:#181818;stroke-width:0.5;" x1="1139.5" x2="1412.5" y1="639" y2="639"/><line style="stroke:#181818;stroke-width:0.5;" x1="1139.5" x2="1412.5" y1="647" y2="647"/><ellipse cx="1149.5" cy="660.6484" fill="#84BE84" rx="3" ry="3" style="stroke:#038048;stroke-width:1.0;"/><text fill="#000000" font-family="sans-serif" font-size="14" lengthAdjust="spacing" textLength="57" x="1158.5" y="663.9951">Charm()</text><polygon fill="#FFFF44" points="1149.5,671.9453,1153.5,675.9453,1149.5,679.9453,1145.5,675.9453" style="stroke:#B38D22;stroke-width:1.0;"/><text fill="#000000" font-family="sans-serif" font-size="14" lengthAdjust="spacing" textLength="249" x="1158.5" y="680.292">void applyOppEffects(Pokemon p)</text><polygon fill="#FFFF44" points="1149.5,688.2422,1153.5,692.2422,1149.5,696.2422,1145.5,692.2422" style="stroke:#B38D22;stroke-width:1.0;"/><text fill="#000000" font-family="sans-serif" font-size="14" lengthAdjust="spacing" textLength="120" x="1158.5" y="696.5889">String describe()</text></g><!--class DazzlingGleam--><g id="elem_DazzlingGleam"><rect codeLine="54" fill="#F1F1F1" height="80.5938" id="DazzlingGleam" rx="2.5" ry="2.5" style="stroke:#181818;stroke-width:0.5;" width="146" x="2869" y="615"/><ellipse cx="2887.15" cy="631" fill="#ADD1B2" rx="11" ry="11" style="stroke:#181818;stroke-width:1.0;"/><path d="M2889.4938,626.6719 C2888.5563,626.2344 2887.9625,626.0938 2887.0875,626.0938 C2884.4625,626.0938 2882.4625,628.1719 2882.4625,630.8906 L2882.4625,632.0156 C2882.4625,634.5938 2884.5719,636.4844 2887.4625,636.4844 C2888.6813,636.4844 2889.8375,636.1875 2890.5875,635.6406 C2891.1656,635.2344 2891.4938,634.7813 2891.4938,634.3906 C2891.4938,633.9375 2891.1031,633.5469 2890.6344,633.5469 C2890.4156,633.5469 2890.2125,633.625 2890.025,633.8125 C2889.5719,634.2969 2889.5719,634.2969 2889.3844,634.3906 C2888.9625,634.6563 2888.275,634.7813 2887.5094,634.7813 C2885.4625,634.7813 2884.1656,633.6875 2884.1656,631.9844 L2884.1656,630.8906 C2884.1656,629.1094 2885.4156,627.7969 2887.15,627.7969 C2887.7281,627.7969 2888.3375,627.9531 2888.8063,628.2031 C2889.2906,628.4844 2889.4625,628.7031 2889.5563,629.1094 C2889.6188,629.5156 2889.65,629.6406 2889.7906,629.7656 C2889.9313,629.9063 2890.1656,630.0156 2890.3844,630.0156 C2890.65,630.0156 2890.9156,629.875 2891.0875,629.6563 C2891.1969,629.5 2891.2281,629.3125 2891.2281,628.8906 L2891.2281,627.4688 C2891.2281,627.0313 2891.2125,626.9063 2891.1188,626.75 C2890.9625,626.4844 2890.6813,626.3438 2890.3844,626.3438 C2890.0875,626.3438 2889.8844,626.4375 2889.6656,626.75 L2889.4938,626.6719 Z " fill="#000000"/><text fill="#000000" font-family="sans-serif" font-size="14" lengthAdjust="spacing" textLength="107" x="2901.85" y="635.8467">DazzlingGleam</text><line style="stroke:#181818;stroke-width:0.5;" x1="2870" x2="3014" y1="647" y2="647"/><line style="stroke:#181818;stroke-width:0.5;" x1="2870" x2="3014" y1="655" y2="655"/><ellipse cx="2880" cy="668.6484" fill="#84BE84" rx="3" ry="3" style="stroke:#038048;stroke-width:1.0;"/><text fill="#000000" font-family="sans-serif" font-size="14" lengthAdjust="spacing" textLength="117" x="2889" y="671.9951">DazzlingGleam()</text><polygon fill="#FFFF44" points="2880,679.9453,2884,683.9453,2880,687.9453,2876,683.9453" style="stroke:#B38D22;stroke-width:1.0;"/><text fill="#000000" font-family="sans-serif" font-size="14" lengthAdjust="spacing" textLength="120" x="2889" y="688.292">String describe()</text></g><!--class Psychic--><g id="elem_Psychic"><rect codeLine="80" fill="#F1F1F1" height="96.8906" id="Psychic" rx="2.5" ry="2.5" style="stroke:#181818;stroke-width:0.5;" width="275" x="1940.5" y="607"/><ellipse cx="2047.25" cy="623" fill="#ADD1B2" rx="11" ry="11" style="stroke:#181818;stroke-width:1.0;"/><path d="M2049.5938,618.6719 C2048.6563,618.2344 2048.0625,618.0938 2047.1875,618.0938 C2044.5625,618.0938 2042.5625,620.1719 2042.5625,622.8906 L2042.5625,624.0156 C2042.5625,626.5938 2044.6719,628.4844 2047.5625,628.4844 C2048.7813,628.4844 2049.9375,628.1875 2050.6875,627.6406 C2051.2656,627.2344 2051.5938,626.7813 2051.5938,626.3906 C2051.5938,625.9375 2051.2031,625.5469 2050.7344,625.5469 C2050.5156,625.5469 2050.3125,625.625 2050.125,625.8125 C2049.6719,626.2969 2049.6719,626.2969 2049.4844,626.3906 C2049.0625,626.6563 2048.375,626.7813 2047.6094,626.7813 C2045.5625,626.7813 2044.2656,625.6875 2044.2656,623.9844 L2044.2656,622.8906 C2044.2656,621.1094 2045.5156,619.7969 2047.25,619.7969 C2047.8281,619.7969 2048.4375,619.9531 2048.9063,620.2031 C2049.3906,620.4844 2049.5625,620.7031 2049.6563,621.1094 C2049.7188,621.5156 2049.75,621.6406 2049.8906,621.7656 C2050.0313,621.9063 2050.2656,622.0156 2050.4844,622.0156 C2050.75,622.0156 2051.0156,621.875 2051.1875,621.6563 C2051.2969,621.5 2051.3281,621.3125 2051.3281,620.8906 L2051.3281,619.4688 C2051.3281,619.0313 2051.3125,618.9063 2051.2188,618.75 C2051.0625,618.4844 2050.7813,618.3438 2050.4844,618.3438 C2050.1875,618.3438 2049.9844,618.4375 2049.7656,618.75 L2049.5938,618.6719 Z " fill="#000000"/><text fill="#000000" font-family="sans-serif" font-size="14" lengthAdjust="spacing" textLength="53" x="2067.75" y="627.8467">Psychic</text><line style="stroke:#181818;stroke-width:0.5;" x1="1941.5" x2="2214.5" y1="639" y2="639"/><line style="stroke:#181818;stroke-width:0.5;" x1="1941.5" x2="2214.5" y1="647" y2="647"/><ellipse cx="1951.5" cy="660.6484" fill="#84BE84" rx="3" ry="3" style="stroke:#038048;stroke-width:1.0;"/><text fill="#000000" font-family="sans-serif" font-size="14" lengthAdjust="spacing" textLength="63" x="1960.5" y="663.9951">Psychic()</text><polygon fill="#FFFF44" points="1951.5,671.9453,1955.5,675.9453,1951.5,679.9453,1947.5,675.9453" style="stroke:#B38D22;stroke-width:1.0;"/><text fill="#000000" font-family="sans-serif" font-size="14" lengthAdjust="spacing" textLength="249" x="1960.5" y="680.292">void applyOppEffects(Pokemon p)</text><polygon fill="#FFFF44" points="1951.5,688.2422,1955.5,692.2422,1951.5,696.2422,1947.5,692.2422" style="stroke:#B38D22;stroke-width:1.0;"/><text fill="#000000" font-family="sans-serif" font-size="14" lengthAdjust="spacing" textLength="120" x="1960.5" y="696.5889">String describe()</text></g><!--class Thunder--><g id="elem_Thunder"><rect codeLine="108" fill="#F1F1F1" height="96.8906" id="Thunder" rx="2.5" ry="2.5" style="stroke:#181818;stroke-width:0.5;" width="275" x="2558.5" y="607"/><ellipse cx="2662.25" cy="623" fill="#ADD1B2" rx="11" ry="11" style="stroke:#181818;stroke-width:1.0;"/><path d="M2664.5938,618.6719 C2663.6563,618.2344 2663.0625,618.0938 2662.1875,618.0938 C2659.5625,618.0938 2657.5625,620.1719 2657.5625,622.8906 L2657.5625,624.0156 C2657.5625,626.5938 2659.6719,628.4844 2662.5625,628.4844 C2663.7813,628.4844 2664.9375,628.1875 2665.6875,627.6406 C2666.2656,627.2344 2666.5938,626.7813 2666.5938,626.3906 C2666.5938,625.9375 2666.2031,625.5469 2665.7344,625.5469 C2665.5156,625.5469 2665.3125,625.625 2665.125,625.8125 C2664.6719,626.2969 2664.6719,626.2969 2664.4844,626.3906 C2664.0625,626.6563 2663.375,626.7813 2662.6094,626.7813 C2660.5625,626.7813 2659.2656,625.6875 2659.2656,623.9844 L2659.2656,622.8906 C2659.2656,621.1094 2660.5156,619.7969 2662.25,619.7969 C2662.8281,619.7969 2663.4375,619.9531 2663.9063,620.2031 C2664.3906,620.4844 2664.5625,620.7031 2664.6563,621.1094 C2664.7188,621.5156 2664.75,621.6406 2664.8906,621.7656 C2665.0313,621.9063 2665.2656,622.0156 2665.4844,622.0156 C2665.75,622.0156 2666.0156,621.875 2666.1875,621.6563 C2666.2969,621.5 2666.3281,621.3125 2666.3281,620.8906 L2666.3281,619.4688 C2666.3281,619.0313 2666.3125,618.9063 2666.2188,618.75 C2666.0625,618.4844 2665.7813,618.3438 2665.4844,618.3438 C2665.1875,618.3438 2664.9844,618.4375 2664.7656,618.75 L2664.5938,618.6719 Z " fill="#000000"/><text fill="#000000" font-family="sans-serif" font-size="14" lengthAdjust="spacing" textLength="59" x="2682.75" y="627.8467">Thunder</text><line style="stroke:#181818;stroke-width:0.5;" x1="2559.5" x2="2832.5" y1="639" y2="639"/><line style="stroke:#181818;stroke-width:0.5;" x1="2559.5" x2="2832.5" y1="647" y2="647"/><ellipse cx="2569.5" cy="660.6484" fill="#84BE84" rx="3" ry="3" style="stroke:#038048;stroke-width:1.0;"/><text fill="#000000" font-family="sans-serif" font-size="14" lengthAdjust="spacing" textLength="69" x="2578.5" y="663.9951">Thunder()</text><polygon fill="#FFFF44" points="2569.5,671.9453,2573.5,675.9453,2569.5,679.9453,2565.5,675.9453" style="stroke:#B38D22;stroke-width:1.0;"/><text fill="#000000" font-family="sans-serif" font-size="14" lengthAdjust="spacing" textLength="249" x="2578.5" y="680.292">void applyOppEffects(Pokemon p)</text><polygon fill="#FFFF44" points="2569.5,688.2422,2573.5,692.2422,2569.5,696.2422,2565.5,692.2422" style="stroke:#B38D22;stroke-width:1.0;"/><text fill="#000000" font-family="sans-serif" font-size="14" lengthAdjust="spacing" textLength="120" x="2578.5" y="696.5889">String describe()</text></g><!--class DoubleTeam--><g id="elem_DoubleTeam"><rect codeLine="60" fill="#F1F1F1" height="96.8906" id="DoubleTeam" rx="2.5" ry="2.5" style="stroke:#181818;stroke-width:0.5;" width="272" x="2251" y="607"/><ellipse cx="2337.25" cy="623" fill="#ADD1B2" rx="11" ry="11" style="stroke:#181818;stroke-width:1.0;"/><path d="M2339.5938,618.6719 C2338.6563,618.2344 2338.0625,618.0938 2337.1875,618.0938 C2334.5625,618.0938 2332.5625,620.1719 2332.5625,622.8906 L2332.5625,624.0156 C2332.5625,626.5938 2334.6719,628.4844 2337.5625,628.4844 C2338.7813,628.4844 2339.9375,628.1875 2340.6875,627.6406 C2341.2656,627.2344 2341.5938,626.7813 2341.5938,626.3906 C2341.5938,625.9375 2341.2031,625.5469 2340.7344,625.5469 C2340.5156,625.5469 2340.3125,625.625 2340.125,625.8125 C2339.6719,626.2969 2339.6719,626.2969 2339.4844,626.3906 C2339.0625,626.6563 2338.375,626.7813 2337.6094,626.7813 C2335.5625,626.7813 2334.2656,625.6875 2334.2656,623.9844 L2334.2656,622.8906 C2334.2656,621.1094 2335.5156,619.7969 2337.25,619.7969 C2337.8281,619.7969 2338.4375,619.9531 2338.9063,620.2031 C2339.3906,620.4844 2339.5625,620.7031 2339.6563,621.1094 C2339.7188,621.5156 2339.75,621.6406 2339.8906,621.7656 C2340.0313,621.9063 2340.2656,622.0156 2340.4844,622.0156 C2340.75,622.0156 2341.0156,621.875 2341.1875,621.6563 C2341.2969,621.5 2341.3281,621.3125 2341.3281,620.8906 L2341.3281,619.4688 C2341.3281,619.0313 2341.3125,618.9063 2341.2188,618.75 C2341.0625,618.4844 2340.7813,618.3438 2340.4844,618.3438 C2340.1875,618.3438 2339.9844,618.4375 2339.7656,618.75 L2339.5938,618.6719 Z " fill="#000000"/><text fill="#000000" font-family="sans-serif" font-size="14" lengthAdjust="spacing" textLength="91" x="2357.75" y="627.8467">DoubleTeam</text><line style="stroke:#181818;stroke-width:0.5;" x1="2252" x2="2522" y1="639" y2="639"/><line style="stroke:#181818;stroke-width:0.5;" x1="2252" x2="2522" y1="647" y2="647"/><ellipse cx="2262" cy="660.6484" fill="#84BE84" rx="3" ry="3" style="stroke:#038048;stroke-width:1.0;"/><text fill="#000000" font-family="sans-serif" font-size="14" lengthAdjust="spacing" textLength="101" x="2271" y="663.9951">DoubleTeam()</text><polygon fill="#FFFF44" points="2262,671.9453,2266,675.9453,2262,679.9453,2258,675.9453" style="stroke:#B38D22;stroke-width:1.0;"/><text fill="#000000" font-family="sans-serif" font-size="14" lengthAdjust="spacing" textLength="246" x="2271" y="680.292">void applySelfEffects(Pokemon p)</text><polygon fill="#FFFF44" points="2262,688.2422,2266,692.2422,2262,696.2422,2258,692.2422" style="stroke:#B38D22;stroke-width:1.0;"/><text fill="#000000" font-family="sans-serif" font-size="14" lengthAdjust="spacing" textLength="120" x="2271" y="696.5889">String describe()</text></g><!--class HydroPump--><g id="elem_HydroPump"><rect codeLine="67" fill="#F1F1F1" height="80.5938" id="HydroPump" rx="2.5" ry="2.5" style="stroke:#181818;stroke-width:0.5;" width="146" x="1449" y="615"/><ellipse cx="1477.95" cy="631" fill="#ADD1B2" rx="11" ry="11" style="stroke:#181818;stroke-width:1.0;"/><path d="M1480.2938,626.6719 C1479.3563,626.2344 1478.7625,626.0938 1477.8875,626.0938 C1475.2625,626.0938 1473.2625,628.1719 1473.2625,630.8906 L1473.2625,632.0156 C1473.2625,634.5938 1475.3719,636.4844 1478.2625,636.4844 C1479.4813,636.4844 1480.6375,636.1875 1481.3875,635.6406 C1481.9656,635.2344 1482.2938,634.7813 1482.2938,634.3906 C1482.2938,633.9375 1481.9031,633.5469 1481.4344,633.5469 C1481.2156,633.5469 1481.0125,633.625 1480.825,633.8125 C1480.3719,634.2969 1480.3719,634.2969 1480.1844,634.3906 C1479.7625,634.6563 1479.075,634.7813 1478.3094,634.7813 C1476.2625,634.7813 1474.9656,633.6875 1474.9656,631.9844 L1474.9656,630.8906 C1474.9656,629.1094 1476.2156,627.7969 1477.95,627.7969 C1478.5281,627.7969 1479.1375,627.9531 1479.6063,628.2031 C1480.0906,628.4844 1480.2625,628.7031 1480.3563,629.1094 C1480.4188,629.5156 1480.45,629.6406 1480.5906,629.7656 C1480.7313,629.9063 1480.9656,630.0156 1481.1844,630.0156 C1481.45,630.0156 1481.7156,629.875 1481.8875,629.6563 C1481.9969,629.5 1482.0281,629.3125 1482.0281,628.8906 L1482.0281,627.4688 C1482.0281,627.0313 1482.0125,626.9063 1481.9188,626.75 C1481.7625,626.4844 1481.4813,626.3438 1481.1844,626.3438 C1480.8875,626.3438 1480.6844,626.4375 1480.4656,626.75 L1480.2938,626.6719 Z " fill="#000000"/><text fill="#000000" font-family="sans-serif" font-size="14" lengthAdjust="spacing" textLength="83" x="1495.05" y="635.8467">HydroPump</text><line style="stroke:#181818;stroke-width:0.5;" x1="1450" x2="1594" y1="647" y2="647"/><line style="stroke:#181818;stroke-width:0.5;" x1="1450" x2="1594" y1="655" y2="655"/><ellipse cx="1460" cy="668.6484" fill="#84BE84" rx="3" ry="3" style="stroke:#038048;stroke-width:1.0;"/><text fill="#000000" font-family="sans-serif" font-size="14" lengthAdjust="spacing" textLength="93" x="1469" y="671.9951">HydroPump()</text><polygon fill="#FFFF44" points="1460,679.9453,1464,683.9453,1460,687.9453,1456,683.9453" style="stroke:#B38D22;stroke-width:1.0;"/><text fill="#000000" font-family="sans-serif" font-size="14" lengthAdjust="spacing" textLength="120" x="1469" y="688.292">String describe()</text></g><!--class Hypnosis--><g id="elem_Hypnosis"><rect codeLine="73" fill="#F1F1F1" height="96.8906" id="Hypnosis" rx="2.5" ry="2.5" style="stroke:#181818;stroke-width:0.5;" width="275" x="1630.5" y="607"/><ellipse cx="1731.75" cy="623" fill="#ADD1B2" rx="11" ry="11" style="stroke:#181818;stroke-width:1.0;"/><path d="M1734.0938,618.6719 C1733.1563,618.2344 1732.5625,618.0938 1731.6875,618.0938 C1729.0625,618.0938 1727.0625,620.1719 1727.0625,622.8906 L1727.0625,624.0156 C1727.0625,626.5938 1729.1719,628.4844 1732.0625,628.4844 C1733.2813,628.4844 1734.4375,628.1875 1735.1875,627.6406 C1735.7656,627.2344 1736.0938,626.7813 1736.0938,626.3906 C1736.0938,625.9375 1735.7031,625.5469 1735.2344,625.5469 C1735.0156,625.5469 1734.8125,625.625 1734.625,625.8125 C1734.1719,626.2969 1734.1719,626.2969 1733.9844,626.3906 C1733.5625,626.6563 1732.875,626.7813 1732.1094,626.7813 C1730.0625,626.7813 1728.7656,625.6875 1728.7656,623.9844 L1728.7656,622.8906 C1728.7656,621.1094 1730.0156,619.7969 1731.75,619.7969 C1732.3281,619.7969 1732.9375,619.9531 1733.4063,620.2031 C1733.8906,620.4844 1734.0625,620.7031 1734.1563,621.1094 C1734.2188,621.5156 1734.25,621.6406 1734.3906,621.7656 C1734.5313,621.9063 1734.7656,622.0156 1734.9844,622.0156 C1735.25,622.0156 1735.5156,621.875 1735.6875,621.6563 C1735.7969,621.5 1735.8281,621.3125 1735.8281,620.8906 L1735.8281,619.4688 C1735.8281,619.0313 1735.8125,618.9063 1735.7188,618.75 C1735.5625,618.4844 1735.2813,618.3438 1734.9844,618.3438 C1734.6875,618.3438 1734.4844,618.4375 1734.2656,618.75 L1734.0938,618.6719 Z " fill="#000000"/><text fill="#000000" font-family="sans-serif" font-size="14" lengthAdjust="spacing" textLength="64" x="1752.25" y="627.8467">Hypnosis</text><line style="stroke:#181818;stroke-width:0.5;" x1="1631.5" x2="1904.5" y1="639" y2="639"/><line style="stroke:#181818;stroke-width:0.5;" x1="1631.5" x2="1904.5" y1="647" y2="647"/><ellipse cx="1641.5" cy="660.6484" fill="#84BE84" rx="3" ry="3" style="stroke:#038048;stroke-width:1.0;"/><text fill="#000000" font-family="sans-serif" font-size="14" lengthAdjust="spacing" textLength="74" x="1650.5" y="663.9951">Hypnosis()</text><polygon fill="#FFFF44" points="1641.5,671.9453,1645.5,675.9453,1641.5,679.9453,1637.5,675.9453" style="stroke:#B38D22;stroke-width:1.0;"/><text fill="#000000" font-family="sans-serif" font-size="14" lengthAdjust="spacing" textLength="249" x="1650.5" y="680.292">void applyOppEffects(Pokemon p)</text><polygon fill="#FFFF44" points="1641.5,688.2422,1645.5,692.2422,1641.5,696.2422,1637.5,692.2422" style="stroke:#B38D22;stroke-width:1.0;"/><text fill="#000000" font-family="sans-serif" font-size="14" lengthAdjust="spacing" textLength="120" x="1650.5" y="696.5889">String describe()</text></g><!--class Roost--><g id="elem_Roost"><rect codeLine="87" fill="#F1F1F1" height="96.8906" id="Roost" rx="2.5" ry="2.5" style="stroke:#181818;stroke-width:0.5;" width="272" x="3050" y="607"/><ellipse cx="3160.75" cy="623" fill="#ADD1B2" rx="11" ry="11" style="stroke:#181818;stroke-width:1.0;"/><path d="M3163.0938,618.6719 C3162.1563,618.2344 3161.5625,618.0938 3160.6875,618.0938 C3158.0625,618.0938 3156.0625,620.1719 3156.0625,622.8906 L3156.0625,624.0156 C3156.0625,626.5938 3158.1719,628.4844 3161.0625,628.4844 C3162.2813,628.4844 3163.4375,628.1875 3164.1875,627.6406 C3164.7656,627.2344 3165.0938,626.7813 3165.0938,626.3906 C3165.0938,625.9375 3164.7031,625.5469 3164.2344,625.5469 C3164.0156,625.5469 3163.8125,625.625 3163.625,625.8125 C3163.1719,626.2969 3163.1719,626.2969 3162.9844,626.3906 C3162.5625,626.6563 3161.875,626.7813 3161.1094,626.7813 C3159.0625,626.7813 3157.7656,625.6875 3157.7656,623.9844 L3157.7656,622.8906 C3157.7656,621.1094 3159.0156,619.7969 3160.75,619.7969 C3161.3281,619.7969 3161.9375,619.9531 3162.4063,620.2031 C3162.8906,620.4844 3163.0625,620.7031 3163.1563,621.1094 C3163.2188,621.5156 3163.25,621.6406 3163.3906,621.7656 C3163.5313,621.9063 3163.7656,622.0156 3163.9844,622.0156 C3164.25,622.0156 3164.5156,621.875 3164.6875,621.6563 C3164.7969,621.5 3164.8281,621.3125 3164.8281,620.8906 L3164.8281,619.4688 C3164.8281,619.0313 3164.8125,618.9063 3164.7188,618.75 C3164.5625,618.4844 3164.2813,618.3438 3163.9844,618.3438 C3163.6875,618.3438 3163.4844,618.4375 3163.2656,618.75 L3163.0938,618.6719 Z " fill="#000000"/><text fill="#000000" font-family="sans-serif" font-size="14" lengthAdjust="spacing" textLength="42" x="3181.25" y="627.8467">Roost</text><line style="stroke:#181818;stroke-width:0.5;" x1="3051" x2="3321" y1="639" y2="639"/><line style="stroke:#181818;stroke-width:0.5;" x1="3051" x2="3321" y1="647" y2="647"/><ellipse cx="3061" cy="660.6484" fill="#84BE84" rx="3" ry="3" style="stroke:#038048;stroke-width:1.0;"/><text fill="#000000" font-family="sans-serif" font-size="14" lengthAdjust="spacing" textLength="52" x="3070" y="663.9951">Roost()</text><polygon fill="#FFFF44" points="3061,671.9453,3065,675.9453,3061,679.9453,3057,675.9453" style="stroke:#B38D22;stroke-width:1.0;"/><text fill="#000000" font-family="sans-serif" font-size="14" lengthAdjust="spacing" textLength="246" x="3070" y="680.292">void applySelfEffects(Pokemon p)</text><polygon fill="#FFFF44" points="3061,688.2422,3065,692.2422,3061,696.2422,3057,692.2422" style="stroke:#B38D22;stroke-width:1.0;"/><text fill="#000000" font-family="sans-serif" font-size="14" lengthAdjust="spacing" textLength="120" x="3070" y="696.5889">String describe()</text></g><!--class Scald--><g id="elem_Scald"><rect codeLine="94" fill="#F1F1F1" height="96.8906" id="Scald" rx="2.5" ry="2.5" style="stroke:#181818;stroke-width:0.5;" width="275" x="3357.5" y="607"/><ellipse cx="3471.75" cy="623" fill="#ADD1B2" rx="11" ry="11" style="stroke:#181818;stroke-width:1.0;"/><path d="M3474.0938,618.6719 C3473.1563,618.2344 3472.5625,618.0938 3471.6875,618.0938 C3469.0625,618.0938 3467.0625,620.1719 3467.0625,622.8906 L3467.0625,624.0156 C3467.0625,626.5938 3469.1719,628.4844 3472.0625,628.4844 C3473.2813,628.4844 3474.4375,628.1875 3475.1875,627.6406 C3475.7656,627.2344 3476.0938,626.7813 3476.0938,626.3906 C3476.0938,625.9375 3475.7031,625.5469 3475.2344,625.5469 C3475.0156,625.5469 3474.8125,625.625 3474.625,625.8125 C3474.1719,626.2969 3474.1719,626.2969 3473.9844,626.3906 C3473.5625,626.6563 3472.875,626.7813 3472.1094,626.7813 C3470.0625,626.7813 3468.7656,625.6875 3468.7656,623.9844 L3468.7656,622.8906 C3468.7656,621.1094 3470.0156,619.7969 3471.75,619.7969 C3472.3281,619.7969 3472.9375,619.9531 3473.4063,620.2031 C3473.8906,620.4844 3474.0625,620.7031 3474.1563,621.1094 C3474.2188,621.5156 3474.25,621.6406 3474.3906,621.7656 C3474.5313,621.9063 3474.7656,622.0156 3474.9844,622.0156 C3475.25,622.0156 3475.5156,621.875 3475.6875,621.6563 C3475.7969,621.5 3475.8281,621.3125 3475.8281,620.8906 L3475.8281,619.4688 C3475.8281,619.0313 3475.8125,618.9063 3475.7188,618.75 C3475.5625,618.4844 3475.2813,618.3438 3474.9844,618.3438 C3474.6875,618.3438 3474.4844,618.4375 3474.2656,618.75 L3474.0938,618.6719 Z " fill="#000000"/><text fill="#000000" font-family="sans-serif" font-size="14" lengthAdjust="spacing" textLength="38" x="3492.25" y="627.8467">Scald</text><line style="stroke:#181818;stroke-width:0.5;" x1="3358.5" x2="3631.5" y1="639" y2="639"/><line style="stroke:#181818;stroke-width:0.5;" x1="3358.5" x2="3631.5" y1="647" y2="647"/><ellipse cx="3368.5" cy="660.6484" fill="#84BE84" rx="3" ry="3" style="stroke:#038048;stroke-width:1.0;"/><text fill="#000000" font-family="sans-serif" font-size="14" lengthAdjust="spacing" textLength="48" x="3377.5" y="663.9951">Scald()</text><polygon fill="#FFFF44" points="3368.5,671.9453,3372.5,675.9453,3368.5,679.9453,3364.5,675.9453" style="stroke:#B38D22;stroke-width:1.0;"/><text fill="#000000" font-family="sans-serif" font-size="14" lengthAdjust="spacing" textLength="249" x="3377.5" y="680.292">void applyOppEffects(Pokemon p)</text><polygon fill="#FFFF44" points="3368.5,688.2422,3372.5,692.2422,3368.5,696.2422,3364.5,692.2422" style="stroke:#B38D22;stroke-width:1.0;"/><text fill="#000000" font-family="sans-serif" font-size="14" lengthAdjust="spacing" textLength="120" x="3377.5" y="696.5889">String describe()</text></g><!--class WingAttack--><g id="elem_WingAttack"><rect codeLine="115" fill="#F1F1F1" height="80.5938" id="WingAttack" rx="2.5" ry="2.5" style="stroke:#181818;stroke-width:0.5;" width="146" x="3668" y="615"/><ellipse cx="3696.05" cy="631" fill="#ADD1B2" rx="11" ry="11" style="stroke:#181818;stroke-width:1.0;"/><path d="M3698.3938,626.6719 C3697.4563,626.2344 3696.8625,626.0938 3695.9875,626.0938 C3693.3625,626.0938 3691.3625,628.1719 3691.3625,630.8906 L3691.3625,632.0156 C3691.3625,634.5938 3693.4719,636.4844 3696.3625,636.4844 C3697.5813,636.4844 3698.7375,636.1875 3699.4875,635.6406 C3700.0656,635.2344 3700.3938,634.7813 3700.3938,634.3906 C3700.3938,633.9375 3700.0031,633.5469 3699.5344,633.5469 C3699.3156,633.5469 3699.1125,633.625 3698.925,633.8125 C3698.4719,634.2969 3698.4719,634.2969 3698.2844,634.3906 C3697.8625,634.6563 3697.175,634.7813 3696.4094,634.7813 C3694.3625,634.7813 3693.0656,633.6875 3693.0656,631.9844 L3693.0656,630.8906 C3693.0656,629.1094 3694.3156,627.7969 3696.05,627.7969 C3696.6281,627.7969 3697.2375,627.9531 3697.7063,628.2031 C3698.1906,628.4844 3698.3625,628.7031 3698.4563,629.1094 C3698.5188,629.5156 3698.55,629.6406 3698.6906,629.7656 C3698.8313,629.9063 3699.0656,630.0156 3699.2844,630.0156 C3699.55,630.0156 3699.8156,629.875 3699.9875,629.6563 C3700.0969,629.5 3700.1281,629.3125 3700.1281,628.8906 L3700.1281,627.4688 C3700.1281,627.0313 3700.1125,626.9063 3700.0188,626.75 C3699.8625,626.4844 3699.5813,626.3438 3699.2844,626.3438 C3698.9875,626.3438 3698.7844,626.4375 3698.5656,626.75 L3698.3938,626.6719 Z " fill="#000000"/><text fill="#000000" font-family="sans-serif" font-size="14" lengthAdjust="spacing" textLength="85" x="3712.95" y="635.8467">WingAttack</text><line style="stroke:#181818;stroke-width:0.5;" x1="3669" x2="3813" y1="647" y2="647"/><line style="stroke:#181818;stroke-width:0.5;" x1="3669" x2="3813" y1="655" y2="655"/><ellipse cx="3679" cy="668.6484" fill="#84BE84" rx="3" ry="3" style="stroke:#038048;stroke-width:1.0;"/><text fill="#000000" font-family="sans-serif" font-size="14" lengthAdjust="spacing" textLength="95" x="3688" y="671.9951">WingAttack()</text><polygon fill="#FFFF44" points="3679,679.9453,3683,683.9453,3679,687.9453,3675,683.9453" style="stroke:#B38D22;stroke-width:1.0;"/><text fill="#000000" font-family="sans-serif" font-size="14" lengthAdjust="spacing" textLength="120" x="3688" y="688.292">String describe()</text></g><!--class Pokemon--><g id="elem_Pokemon"><rect fill="#F1F1F1" height="48" id="Pokemon" rx="2.5" ry="2.5" style="stroke:#181818;stroke-width:0.5;" width="100" x="7" y="251"/><ellipse cx="22" cy="267" fill="#ADD1B2" rx="11" ry="11" style="stroke:#181818;stroke-width:1.0;"/><path d="M24.3438,262.6719 C23.4063,262.2344 22.8125,262.0938 21.9375,262.0938 C19.3125,262.0938 17.3125,264.1719 17.3125,266.8906 L17.3125,268.0156 C17.3125,270.5938 19.4219,272.4844 22.3125,272.4844 C23.5313,272.4844 24.6875,272.1875 25.4375,271.6406 C26.0156,271.2344 26.3438,270.7813 26.3438,270.3906 C26.3438,269.9375 25.9531,269.5469 25.4844,269.5469 C25.2656,269.5469 25.0625,269.625 24.875,269.8125 C24.4219,270.2969 24.4219,270.2969 24.2344,270.3906 C23.8125,270.6563 23.125,270.7813 22.3594,270.7813 C20.3125,270.7813 19.0156,269.6875 19.0156,267.9844 L19.0156,266.8906 C19.0156,265.1094 20.2656,263.7969 22,263.7969 C22.5781,263.7969 23.1875,263.9531 23.6563,264.2031 C24.1406,264.4844 24.3125,264.7031 24.4063,265.1094 C24.4688,265.5156 24.5,265.6406 24.6406,265.7656 C24.7813,265.9063 25.0156,266.0156 25.2344,266.0156 C25.5,266.0156 25.7656,265.875 25.9375,265.6563 C26.0469,265.5 26.0781,265.3125 26.0781,264.8906 L26.0781,263.4688 C26.0781,263.0313 26.0625,262.9063 25.9688,262.75 C25.8125,262.4844 25.5313,262.3438 25.2344,262.3438 C24.9375,262.3438 24.7344,262.4375 24.5156,262.75 L24.3438,262.6719 Z " fill="#000000"/><text fill="#000000" font-family="sans-serif" font-size="14" lengthAdjust="spacing" textLength="68" x="36" y="271.8467">Pokemon</text><line style="stroke:#181818;stroke-width:0.5;" x1="8" x2="106" y1="283" y2="283"/><line style="stroke:#181818;stroke-width:0.5;" x1="8" x2="106" y1="291" y2="291"/></g><!--class StatusMove--><g id="elem_StatusMove"><rect fill="#F1F1F1" height="48" id="StatusMove" rx="2.5" ry="2.5" style="stroke:#181818;stroke-width:0.5;" width="116" x="4229" y="491"/><ellipse cx="4244" cy="507" fill="#ADD1B2" rx="11" ry="11" style="stroke:#181818;stroke-width:1.0;"/><path d="M4246.3438,502.6719 C4245.4063,502.2344 4244.8125,502.0938 4243.9375,502.0938 C4241.3125,502.0938 4239.3125,504.1719 4239.3125,506.8906 L4239.3125,508.0156 C4239.3125,510.5938 4241.4219,512.4844 4244.3125,512.4844 C4245.5313,512.4844 4246.6875,512.1875 4247.4375,511.6406 C4248.0156,511.2344 4248.3438,510.7813 4248.3438,510.3906 C4248.3438,509.9375 4247.9531,509.5469 4247.4844,509.5469 C4247.2656,509.5469 4247.0625,509.625 4246.875,509.8125 C4246.4219,510.2969 4246.4219,510.2969 4246.2344,510.3906 C4245.8125,510.6563 4245.125,510.7813 4244.3594,510.7813 C4242.3125,510.7813 4241.0156,509.6875 4241.0156,507.9844 L4241.0156,506.8906 C4241.0156,505.1094 4242.2656,503.7969 4244,503.7969 C4244.5781,503.7969 4245.1875,503.9531 4245.6563,504.2031 C4246.1406,504.4844 4246.3125,504.7031 4246.4063,505.1094 C4246.4688,505.5156 4246.5,505.6406 4246.6406,505.7656 C4246.7813,505.9063 4247.0156,506.0156 4247.2344,506.0156 C4247.5,506.0156 4247.7656,505.875 4247.9375,505.6563 C4248.0469,505.5 4248.0781,505.3125 4248.0781,504.8906 L4248.0781,503.4688 C4248.0781,503.0313 4248.0625,502.9063 4247.9688,502.75 C4247.8125,502.4844 4247.5313,502.3438 4247.2344,502.3438 C4246.9375,502.3438 4246.7344,502.4375 4246.5156,502.75 L4246.3438,502.6719 Z " fill="#000000"/><text fill="#000000" font-family="sans-serif" font-size="14" lengthAdjust="spacing" textLength="84" x="4258" y="511.8467">StatusMove</text><line style="stroke:#181818;stroke-width:0.5;" x1="4230" x2="4344" y1="523" y2="523"/><line style="stroke:#181818;stroke-width:0.5;" x1="4230" x2="4344" y1="531" y2="531"/></g><!--class SpecialMove--><g id="elem_SpecialMove"><rect fill="#F1F1F1" height="48" id="SpecialMove" rx="2.5" ry="2.5" style="stroke:#181818;stroke-width:0.5;" width="122" x="4380" y="491"/><ellipse cx="4395" cy="507" fill="#ADD1B2" rx="11" ry="11" style="stroke:#181818;stroke-width:1.0;"/><path d="M4397.3438,502.6719 C4396.4063,502.2344 4395.8125,502.0938 4394.9375,502.0938 C4392.3125,502.0938 4390.3125,504.1719 4390.3125,506.8906 L4390.3125,508.0156 C4390.3125,510.5938 4392.4219,512.4844 4395.3125,512.4844 C4396.5313,512.4844 4397.6875,512.1875 4398.4375,511.6406 C4399.0156,511.2344 4399.3438,510.7813 4399.3438,510.3906 C4399.3438,509.9375 4398.9531,509.5469 4398.4844,509.5469 C4398.2656,509.5469 4398.0625,509.625 4397.875,509.8125 C4397.4219,510.2969 4397.4219,510.2969 4397.2344,510.3906 C4396.8125,510.6563 4396.125,510.7813 4395.3594,510.7813 C4393.3125,510.7813 4392.0156,509.6875 4392.0156,507.9844 L4392.0156,506.8906 C4392.0156,505.1094 4393.2656,503.7969 4395,503.7969 C4395.5781,503.7969 4396.1875,503.9531 4396.6563,504.2031 C4397.1406,504.4844 4397.3125,504.7031 4397.4063,505.1094 C4397.4688,505.5156 4397.5,505.6406 4397.6406,505.7656 C4397.7813,505.9063 4398.0156,506.0156 4398.2344,506.0156 C4398.5,506.0156 4398.7656,505.875 4398.9375,505.6563 C4399.0469,505.5 4399.0781,505.3125 4399.0781,504.8906 L4399.0781,503.4688 C4399.0781,503.0313 4399.0625,502.9063 4398.9688,502.75 C4398.8125,502.4844 4398.5313,502.3438 4398.2344,502.3438 C4397.9375,502.3438 4397.7344,502.4375 4397.5156,502.75 L4397.3438,502.6719 Z " fill="#000000"/><text fill="#000000" font-family="sans-serif" font-size="14" lengthAdjust="spacing" textLength="90" x="4409" y="511.8467">SpecialMove</text><line style="stroke:#181818;stroke-width:0.5;" x1="4381" x2="4501" y1="523" y2="523"/><line style="stroke:#181818;stroke-width:0.5;" x1="4381" x2="4501" y1="531" y2="531"/></g><!--class PhysicalMove--><g id="elem_PhysicalMove"><rect fill="#F1F1F1" height="48" id="PhysicalMove" rx="2.5" ry="2.5" style="stroke:#181818;stroke-width:0.5;" width="127" x="4537.5" y="491"/><ellipse cx="4552.5" cy="507" fill="#ADD1B2" rx="11" ry="11" style="stroke:#181818;stroke-width:1.0;"/><path d="M4554.8438,502.6719 C4553.9063,502.2344 4553.3125,502.0938 4552.4375,502.0938 C4549.8125,502.0938 4547.8125,504.1719 4547.8125,506.8906 L4547.8125,508.0156 C4547.8125,510.5938 4549.9219,512.4844 4552.8125,512.4844 C4554.0313,512.4844 4555.1875,512.1875 4555.9375,511.6406 C4556.5156,511.2344 4556.8438,510.7813 4556.8438,510.3906 C4556.8438,509.9375 4556.4531,509.5469 4555.9844,509.5469 C4555.7656,509.5469 4555.5625,509.625 4555.375,509.8125 C4554.9219,510.2969 4554.9219,510.2969 4554.7344,510.3906 C4554.3125,510.6563 4553.625,510.7813 4552.8594,510.7813 C4550.8125,510.7813 4549.5156,509.6875 4549.5156,507.9844 L4549.5156,506.8906 C4549.5156,505.1094 4550.7656,503.7969 4552.5,503.7969 C4553.0781,503.7969 4553.6875,503.9531 4554.1563,504.2031 C4554.6406,504.4844 4554.8125,504.7031 4554.9063,505.1094 C4554.9688,505.5156 4555,505.6406 4555.1406,505.7656 C4555.2813,505.9063 4555.5156,506.0156 4555.7344,506.0156 C4556,506.0156 4556.2656,505.875 4556.4375,505.6563 C4556.5469,505.5 4556.5781,505.3125 4556.5781,504.8906 L4556.5781,503.4688 C4556.5781,503.0313 4556.5625,502.9063 4556.4688,502.75 C4556.3125,502.4844 4556.0313,502.3438 4555.7344,502.3438 C4555.4375,502.3438 4555.2344,502.4375 4555.0156,502.75 L4554.8438,502.6719 Z " fill="#000000"/><text fill="#000000" font-family="sans-serif" font-size="14" lengthAdjust="spacing" textLength="95" x="4566.5" y="511.8467">PhysicalMove</text><line style="stroke:#181818;stroke-width:0.5;" x1="4538.5" x2="4663.5" y1="523" y2="523"/><line style="stroke:#181818;stroke-width:0.5;" x1="4538.5" x2="4663.5" y1="531" y2="531"/></g><!--link App to Mesprit--><g id="link_App_Mesprit"><path codeLine="4" d="M401.696,191.019 C463.62,234.977 566.4668,307.9858 628.4358,351.9758 " fill="none" id="App-to-Mesprit" style="stroke:#AAAAAA;stroke-width:1.0;"/><polygon fill="none" points="638.221,358.922,635.6438,352.1872,628.4358,351.9758,631.013,358.7106,638.221,358.922" style="stroke:#AAAAAA;stroke-width:1.0;"/></g><!--link App to Kirlia--><g id="link_App_Kirlia"><path codeLine="5" d="M305.807,191.069 C285.34,206.3 264.122,226.643 253,251 C221.247,320.538 214.047,357.224 253,423 C268.826,449.724 284.8706,463.7201 312.3376,477.5541 " fill="none" id="App-to-Kirlia" style="stroke:#AAAAAA;stroke-width:1.0;"/><polygon fill="none" points="323.055,482.952,319.4956,476.6806,312.3376,477.5541,315.897,483.8255,323.055,482.952" style="stroke:#AAAAAA;stroke-width:1.0;"/></g><!--link App to Gardevoir--><g id="link_App_Gardevoir"><path codeLine="6" d="M291.745,191.024 C267.472,205.761 242.24,225.751 227,251 C210.264,278.727 218.575,421.361 219,423 C234.841,484.047 246.8,499.248 288,547 C313.824,576.931 339.2412,597.2552 367.9572,616.7402 " fill="none" id="App-to-Gardevoir" style="stroke:#AAAAAA;stroke-width:1.0;"/><polygon fill="none" points="377.887,623.478,375.168,616.7991,367.9572,616.7402,370.6761,623.419,377.887,623.478" style="stroke:#AAAAAA;stroke-width:1.0;"/></g><!--link App to Pelipper--><g id="link_App_Pelipper"><path codeLine="7" d="M332.266,191.116 C291.127,244.768 220.906,355.418 280,423 C315.613,463.729 632.9044,491.8281 818.4134,505.0621 " fill="none" id="App-to-Pelipper" style="stroke:#AAAAAA;stroke-width:1.0;"/><polygon fill="none" points="830.383,505.916,824.6828,501.4992,818.4134,505.0621,824.1136,509.4789,830.383,505.916" style="stroke:#AAAAAA;stroke-width:1.0;"/></g><!--link App to Ralts--><g id="link_App_Ralts"><path codeLine="8" d="M365.148,191.019 C375.263,234.916 390.9554,303.0155 401.1014,347.0445 " fill="none" id="App-to-Ralts" style="stroke:#AAAAAA;stroke-width:1.0;"/><polygon fill="none" points="403.796,358.738,406.3465,351.993,401.1014,347.0445,398.5508,353.7894,403.796,358.738" style="stroke:#AAAAAA;stroke-width:1.0;"/></g><!--link App to Wingull--><g id="link_App_Wingull"><path codeLine="9" d="M466.775,191.014 C562.028,219.477 703.361,264.891 822,316 C851,328.493 871.6329,338.9541 897.0639,353.0641 " fill="none" id="App-to-Wingull" style="stroke:#AAAAAA;stroke-width:1.0;"/><polygon fill="none" points="907.557,358.886,904.2511,352.4773,897.0639,353.0641,900.3698,359.4727,907.557,358.886" style="stroke:#AAAAAA;stroke-width:1.0;"/></g><!--reverse link Kirlia to Gardevoir--><g id="link_Kirlia_Gardevoir"><path d="M422.1873,565.0441 C423.6593,587.6941 424.478,600.305 425.956,623.042 " fill="none" id="Kirlia-backto-Gardevoir" style="stroke:#181818;stroke-width:1.0;"/><polygon fill="none" points="421.02,547.082,416.2,565.4332,428.1747,564.655,421.02,547.082" style="stroke:#181818;stroke-width:1.0;"/></g><!--link Gardevoir to ShadowBall--><g id="link_Gardevoir_ShadowBall"><path codeLine="14" d="M558.232,631.623 C700.465,606.854 935.272,569.782 1139.5,555.5 C1176.55,552.909 3777.31,547.175 3813.5,555.5 C3852.97,564.579 3882.4503,579.4703 3913.7503,600.2343 " fill="none" id="Gardevoir-to-ShadowBall" style="stroke:#AAAAAA;stroke-width:1.0;"/><polygon fill="none" points="3923.75,606.868,3920.9614,600.2179,3913.7503,600.2343,3916.5389,606.8844,3923.75,606.868" style="stroke:#AAAAAA;stroke-width:1.0;"/></g><!--reverse link Ralts to Kirlia--><g id="link_Ralts_Kirlia"><path d="M414.2171,441.0624 C415.4211,459.4184 415.761,464.61 416.964,482.955 " fill="none" id="Ralts-backto-Kirlia" style="stroke:#181818;stroke-width:1.0;"/><polygon fill="none" points="413.039,423.101,408.23,441.4551,420.2043,440.6697,413.039,423.101" style="stroke:#181818;stroke-width:1.0;"/></g><!--link Kirlia to Charm--><g id="link_Kirlia_Charm"><path codeLine="19" d="M532.325,525.488 C611.038,531.939 718.367,540.455 813,547 C876.295,551.377 1036.77,547.385 1098,564 C1132.96,573.487 1158.5014,584.5699 1188.9614,601.1579 " fill="none" id="Kirlia-to-Charm" style="stroke:#AAAAAA;stroke-width:1.0;"/><polygon fill="none" points="1199.5,606.897,1196.1437,600.5146,1188.9614,601.1579,1192.3176,607.5403,1199.5,606.897" style="stroke:#AAAAAA;stroke-width:1.0;"/></g><!--reverse link Pokemon to Mesprit--><g id="link_Pokemon_Mesprit"><path d="M124.8405,291.6147 C144.6045,295.8277 149.959,296.41 171,299 C252.692,309.057 461.556,294.473 541,316 C574.488,325.074 609.028,343.036 635.541,358.99 " fill="none" id="Pokemon-backto-Mesprit" style="stroke:#181818;stroke-width:1.0;"/><polygon fill="none" points="107.236,287.862,123.5896,297.4828,126.0914,285.7465,107.236,287.862" style="stroke:#181818;stroke-width:1.0;"/></g><!--link Mesprit to DazzlingGleam--><g id="link_Mesprit_DazzlingGleam"><path codeLine="24" d="M804.703,420.452 C810.535,421.401 816.322,422.259 822,423 C1456.29,505.8 1622.9,425.714 2260,483 C2466.46,501.564 2516.57,519.236 2722,547 C2779.31,554.745 2799.1,538.491 2851,564 C2875,575.794 2888.6404,587.3404 2904.7104,605.9224 " fill="none" id="Mesprit-to-DazzlingGleam" style="stroke:#AAAAAA;stroke-width:1.0;"/><polygon fill="none" points="2912.56,614.999,2911.6607,607.8442,2904.7104,605.9224,2905.6097,613.0772,2912.56,614.999" style="stroke:#AAAAAA;stroke-width:1.0;"/></g><!--link Mesprit to Psychic--><g id="link_Mesprit_Psychic"><path codeLine="25" d="M804.724,420.3 C810.55,421.289 816.331,422.198 822,423 C1239.57,482.098 1362.97,368.991 1769,483 C1860.12,508.584 1943.7277,558.7937 2003.6577,600.0757 " fill="none" id="Mesprit-to-Psychic" style="stroke:#AAAAAA;stroke-width:1.0;"/><polygon fill="none" points="2013.54,606.883,2010.8679,600.1852,2003.6577,600.0757,2006.3297,606.7735,2013.54,606.883" style="stroke:#AAAAAA;stroke-width:1.0;"/></g><!--link Mesprit to Thunder--><g id="link_Mesprit_Thunder"><path codeLine="26" d="M804.711,420.394 C810.541,421.358 816.326,422.236 822,423 C1351.66,494.356 1491.37,428.229 2023,483 C2254.36,506.836 2320.78,486.318 2540,564 C2569.96,574.615 2590.4335,584.7933 2616.6135,600.7513 " fill="none" id="Mesprit-to-Thunder" style="stroke:#AAAAAA;stroke-width:1.0;"/><polygon fill="none" points="2626.86,606.997,2623.8187,600.4586,2616.6135,600.7513,2619.6548,607.2896,2626.86,606.997" style="stroke:#AAAAAA;stroke-width:1.0;"/></g><!--link Mesprit to DoubleTeam--><g id="link_Mesprit_DoubleTeam"><path codeLine="27" d="M804.719,420.335 C810.547,421.315 816.329,422.212 822,423 C1274.87,485.958 1395.82,422.313 1849,483 C2021.88,506.151 2070.36,500.992 2233,564 C2261.77,575.146 2281.1975,585.0478 2306.7275,600.6318 " fill="none" id="Mesprit-to-DoubleTeam" style="stroke:#AAAAAA;stroke-width:1.0;"/><polygon fill="none" points="2316.97,606.884,2313.9328,600.3437,2306.7275,600.6318,2309.7647,607.1721,2316.97,606.884" style="stroke:#AAAAAA;stroke-width:1.0;"/></g><!--reverse link Wingull to Pelipper--><g id="link_Wingull_Pelipper"><path d="M958.9882,441.0859 C958.2362,459.4419 958.024,464.61 957.272,482.955 " fill="none" id="Wingull-backto-Pelipper" style="stroke:#181818;stroke-width:1.0;"/><polygon fill="none" points="959.725,423.101,952.9932,440.8403,964.9832,441.3315,959.725,423.101" style="stroke:#181818;stroke-width:1.0;"/></g><!--link Pelipper to HydroPump--><g id="link_Pelipper_HydroPump"><path codeLine="32" d="M1081.56,519.252 C1201.03,524.029 1371.15,535.7 1431,564 C1455.17,575.429 1468.8607,586.9263 1484.8907,605.5873 " fill="none" id="Pelipper-to-HydroPump" style="stroke:#AAAAAA;stroke-width:1.0;"/><polygon fill="none" points="1492.71,614.69,1491.8346,607.5322,1484.8907,605.5873,1485.7661,612.7451,1492.71,614.69" style="stroke:#AAAAAA;stroke-width:1.0;"/></g><!--reverse link Pokemon to Ralts--><g id="link_Pokemon_Ralts"><path d="M124.4774,297.7298 C178.2114,315.0348 247.516,337.353 314.454,358.909 " fill="none" id="Pokemon-backto-Ralts" style="stroke:#181818;stroke-width:1.0;"/><polygon fill="none" points="107.344,292.212,122.6381,303.4409,126.3167,292.0187,107.344,292.212" style="stroke:#181818;stroke-width:1.0;"/></g><!--link Ralts to Hypnosis--><g id="link_Ralts_Hypnosis"><path codeLine="37" d="M524.074,419.689 C530.123,420.878 536.126,421.993 542,423 C1014.77,504.074 1159.97,403.522 1612,564 C1641.8,574.58 1662.1198,584.6593 1688.2098,600.5413 " fill="none" id="Ralts-to-Hypnosis" style="stroke:#AAAAAA;stroke-width:1.0;"/><polygon fill="none" points="1698.46,606.781,1695.4148,600.2444,1688.2098,600.5413,1691.255,607.0779,1698.46,606.781" style="stroke:#AAAAAA;stroke-width:1.0;"/></g><!--link Ralts to Psychic--><g id="link_Ralts_Psychic"><path codeLine="38" d="M524.027,419.981 C530.088,421.095 536.107,422.113 542,423 C939.3,482.8 1045.7,430.275 1444,483 C1588.22,502.091 1621.2,524.974 1765,547 C1834.81,557.693 1855.91,541.929 1923,564 C1953.49,574.03 1974.3337,584.3116 2000.5537,600.5826 " fill="none" id="Ralts-to-Psychic" style="stroke:#AAAAAA;stroke-width:1.0;"/><polygon fill="none" points="2010.75,606.91,2007.761,600.3475,2000.5537,600.5826,2003.5427,607.1451,2010.75,606.91" style="stroke:#AAAAAA;stroke-width:1.0;"/></g><!--reverse link Pokemon to Wingull--><g id="link_Pokemon_Wingull"><path d="M124.8102,291.8572 C144.5702,296.0982 149.934,296.618 171,299 C242.9,307.13 752.031,297.562 822,316 C855.31,324.778 889.503,342.841 915.64,358.923 " fill="none" id="Pokemon-backto-Wingull" style="stroke:#181818;stroke-width:1.0;"/><polygon fill="none" points="107.211,288.08,123.5511,297.7236,126.0693,285.9908,107.211,288.08" style="stroke:#181818;stroke-width:1.0;"/></g><!--link Wingull to Roost--><g id="link_Wingull_Roost"><path codeLine="43" d="M1082.19,394.977 C1426.85,403.962 2408.17,433.292 2726,483 C2864.99,504.739 2902.15,509.859 3032,564 C3060.05,575.696 3078.9225,585.4878 3104.2125,600.7868 " fill="none" id="Wingull-to-Roost" style="stroke:#AAAAAA;stroke-width:1.0;"/><polygon fill="none" points="3114.48,606.998,3111.4167,600.4699,3104.2125,600.7868,3107.2759,607.3149,3114.48,606.998" style="stroke:#AAAAAA;stroke-width:1.0;"/></g><!--link Wingull to Scald--><g id="link_Wingull_Scald"><path codeLine="44" d="M1082.1,392.655 C1384.24,395.402 2195.39,409.618 2867,483 C3078.59,506.118 3138.9,491.453 3339,564 C3368.73,574.779 3389.0249,584.9074 3415.1249,600.7674 " fill="none" id="Wingull-to-Scald" style="stroke:#AAAAAA;stroke-width:1.0;"/><polygon fill="none" points="3425.38,606.999,3422.3297,600.4648,3415.1249,600.7674,3418.1752,607.3015,3425.38,606.999" style="stroke:#AAAAAA;stroke-width:1.0;"/></g><!--link Wingull to WingAttack--><g id="link_Wingull_WingAttack"><path codeLine="45" d="M1082.16,392.986 C1407.06,396.541 2324.53,412.555 3084,483 C3337.03,506.47 3422.57,450.64 3650,564 C3673.73,575.828 3687.1827,587.1625 3703.2227,605.5955 " fill="none" id="Wingull-to-WingAttack" style="stroke:#AAAAAA;stroke-width:1.0;"/><polygon fill="none" points="3711.1,614.648,3710.1789,607.496,3703.2227,605.5955,3704.1438,612.7475,3711.1,614.648" style="stroke:#AAAAAA;stroke-width:1.0;"/></g><!--reverse link StatusMove to Charm--><g id="link_StatusMove_Charm"><path d="M4210.8701,516.1896 C3817.1701,517.2516 1570.51,524.993 1431,564 C1399.19,572.894 1367.15,589.939 1340.52,606.86 " fill="none" id="StatusMove-backto-Charm" style="stroke:#181818;stroke-width:1.0;"/><polygon fill="none" points="4228.87,516.141,4210.8539,510.1896,4210.8863,522.1895,4228.87,516.141" style="stroke:#181818;stroke-width:1.0;"/></g><!--reverse link SpecialMove to DazzlingGleam--><g id="link_SpecialMove_DazzlingGleam"><path d="M4373.6912,545.188 C4364.6612,548.434 4372.15,545.188 4363,547 C4290.46,561.368 3100.1,535.17 3032,564 C3007.11,574.539 2985.5,595.587 2969.7,614.733 " fill="none" id="SpecialMove-backto-DazzlingGleam" style="stroke:#181818;stroke-width:1.0;"/><polygon fill="none" points="4390.63,539.099,4371.6615,539.5417,4375.7208,550.8343,4390.63,539.099" style="stroke:#181818;stroke-width:1.0;"/></g><!--reverse link StatusMove to DoubleTeam--><g id="link_StatusMove_DoubleTeam"><path d="M4210.89,515.8549 C3926.46,515.4899 2705.96,516.674 2541,564 C2509.55,573.022 2477.87,589.978 2451.49,606.796 " fill="none" id="StatusMove-backto-DoubleTeam" style="stroke:#181818;stroke-width:1.0;"/><polygon fill="none" points="4228.89,515.878,4210.8977,509.8549,4210.8823,521.8549,4228.89,515.878" style="stroke:#181818;stroke-width:1.0;"/></g><!--reverse link SpecialMove to HydroPump--><g id="link_SpecialMove_HydroPump"><path d="M4373.6982,545.2297 C4364.6682,548.4707 4372.15,545.218 4363,547 C4288.02,561.595 1683.53,534.646 1613,564 C1587.9,574.446 1566.06,595.489 1550.07,614.657 " fill="none" id="SpecialMove-backto-HydroPump" style="stroke:#181818;stroke-width:1.0;"/><polygon fill="none" points="4390.64,539.149,4371.6713,539.5824,4375.7251,550.8769,4390.64,539.149" style="stroke:#181818;stroke-width:1.0;"/></g><!--reverse link StatusMove to Hypnosis--><g id="link_StatusMove_Hypnosis"><path d="M4210.7604,516.4687 C3858.0704,518.7157 2037.28,531.831 1923,564 C1891.21,572.95 1859.17,590.004 1832.54,606.917 " fill="none" id="StatusMove-backto-Hypnosis" style="stroke:#181818;stroke-width:1.0;"/><polygon fill="none" points="4228.76,516.354,4210.7221,510.4688,4210.7986,522.4686,4228.76,516.354" style="stroke:#181818;stroke-width:1.0;"/></g><!--reverse link SpecialMove to Psychic--><g id="link_SpecialMove_Psychic"><path d="M4373.6882,545.2167 C4364.6582,548.4577 4372.15,545.21 4363,547 C4246.86,569.714 2347.11,532.638 2233,564 C2201,572.795 2168.8,589.935 2142.1,606.955 " fill="none" id="SpecialMove-backto-Psychic" style="stroke:#181818;stroke-width:1.0;"/><polygon fill="none" points="4390.63,539.136,4371.6613,539.5694,4375.7151,550.8639,4390.63,539.136" style="stroke:#181818;stroke-width:1.0;"/></g><!--reverse link StatusMove to Roost--><g id="link_StatusMove_Roost"><path d="M4210.7752,517.7722 C4017.8252,522.4282 3424.81,538.601 3340,564 C3308.81,573.341 3277.3,590.244 3250.97,606.935 " fill="none" id="StatusMove-backto-Roost" style="stroke:#181818;stroke-width:1.0;"/><polygon fill="none" points="4228.77,517.338,4210.6305,511.774,4210.92,523.7705,4228.77,517.338" style="stroke:#181818;stroke-width:1.0;"/></g><!--reverse link SpecialMove to Scald--><g id="link_SpecialMove_Scald"><path d="M4373.6771,545.1186 C4364.6471,548.3746 4372.14,545.137 4363,547 C4207.7,578.653 3802.48,520.786 3650,564 C3618.22,573.006 3586.18,590.07 3559.55,606.975 " fill="none" id="SpecialMove-backto-Scald" style="stroke:#181818;stroke-width:1.0;"/><polygon fill="none" points="4390.61,539.013,4371.6419,539.4743,4375.7123,550.7629,4390.61,539.013" style="stroke:#181818;stroke-width:1.0;"/></g><!--reverse link SpecialMove to ShadowBall--><g id="link_SpecialMove_ShadowBall"><path d="M4368.1856,545.4253 C4360.8256,548.2243 4370.17,544.556 4363,547 C4284.92,573.604 4196.26,599.17 4124.65,618.69 " fill="none" id="SpecialMove-backto-ShadowBall" style="stroke:#181818;stroke-width:1.0;"/><polygon fill="none" points="4385.01,539.027,4366.0528,539.8172,4370.3183,551.0335,4385.01,539.027" style="stroke:#181818;stroke-width:1.0;"/></g><!--reverse link SpecialMove to Thunder--><g id="link_SpecialMove_Thunder"><path d="M4373.6906,545.1973 C4364.6606,548.4423 4372.15,545.195 4363,547 C4280.58,563.258 2931.97,541.605 2851,564 C2819.16,572.806 2787.12,589.835 2760.49,606.769 " fill="none" id="SpecialMove-backto-Thunder" style="stroke:#181818;stroke-width:1.0;"/><polygon fill="none" points="4390.63,539.11,4371.6615,539.5508,4375.7197,550.8438,4390.63,539.11" style="stroke:#181818;stroke-width:1.0;"/></g><!--reverse link PhysicalMove to WingAttack--><g id="link_PhysicalMove_WingAttack"><path d="M4531.6079,544.9129 C4522.2379,548.1699 4529.45,545.132 4520,547 C4444.98,561.825 3902.32,533.963 3832,564 C3807,574.678 3785.16,595.732 3769.15,614.847 " fill="none" id="PhysicalMove-backto-WingAttack" style="stroke:#181818;stroke-width:1.0;"/><polygon fill="none" points="4548.61,539.003,4529.6379,539.2455,4533.5778,550.5803,4548.61,539.003" style="stroke:#181818;stroke-width:1.0;"/></g><!--SRC=[jLPDRvmm4BtpAv1o8MgN_q0_b4XHr5KsKWzH3ewP3LQCRTbcMrBrlzU0WUmkjXSgpZFpthmtCmPCaLAnh5AYIvuY8T9CYFXFz4bff0cE3vpaSOa8ItPQ4lRwz1mZ-Qgkex_HQT5ca_DVxEagoxBd3J_25FmDIivKUWzAIABFQp-KkchlYAG4UKiTbJT8vc2Ko4MyMw14291Bc1yGrMgHKp-DsHMbKOJF9dIkAuRV6bYkVCOrGnqAx3HZXahu71EcOme7eATZdM3oE5Ro0wXqLo2JyWK5UhTDUHjltMlwxfBdDcqft6Pt3Nyja2ozlTgj7PhTTe6cCnkQsrgF67Jp6tf_fmRvXW8gByUQWjgg6XS41q12A8z5nVAJOrWWYrSl51uRJJxZ-zFphuazbMOSVS7SUGn48VctTIxvjYg5j-zkSIVMfGtCRQv32tfwMml65L6NWlXsn2Ukjtj2dWtD5TWZ1fVlWNEb0nZ1zmaZcb-ECGNHv6LQ8_msPTI7LsNmQ6U-ffMwDv76fZQMN4TNxTVLrD3wXn3Vztl0PZjwFuL9i4RceB0aBv0q5hevZnwBaLi09eZsv4T9oNoEuN8TuiQ4OuKxeFl_bpZSdqlUa90imEuEo26i3wymE7jsBaqsl09nUr0ElMriZHcs5-ZIsWPNK3h-bZYPXumLwErdqyLjmoiGZs_L-60NjI9u91zJ73Vp3m00]--></g></svg>